<?xml version="1.0" encoding="UTF-8" standalone="no"?>
<!DOCTYPE svg PUBLIC "-//W3C//DTD SVG 1.1//EN" "http://www.w3.org/Graphics/SVG/1.1/DTD/svg11.dtd">
<svg width="100%" height="100%" viewBox="0 0 30 30" version="1.1" xmlns="http://www.w3.org/2000/svg" xmlns:xlink="http://www.w3.org/1999/xlink" xml:space="preserve" xmlns:serif="http://www.serif.com/" style="fill-rule:evenodd;clip-rule:evenodd;stroke-miterlimit:1.5;">
    <g transform="matrix(1.07527,0,0,0.9375,-0.102151,0.0046875)">
        <path d="M8.23,10.4L8.23,11.94L8.274,11.94C8.659,11.376 9.167,10.91 9.764,10.57C10.344,10.247 11.014,10.085 11.754,10.085C12.474,10.085 13.134,10.225 13.724,10.505C14.319,10.784 14.774,11.276 15.084,11.985C15.422,11.485 15.88,11.044 16.464,10.665C17.044,10.282 17.734,10.091 18.524,10.091C19.126,10.091 19.684,10.165 20.194,10.311C20.708,10.459 21.148,10.694 21.514,11.018C21.88,11.341 22.167,11.764 22.373,12.288C22.578,12.81 22.681,13.438 22.681,14.178L22.681,21.808L19.551,21.808L19.551,15.348C19.551,14.965 19.536,14.605 19.507,14.268C19.486,13.961 19.404,13.661 19.265,13.386C19.132,13.135 18.929,12.928 18.681,12.79C18.424,12.644 18.075,12.57 17.631,12.57C17.191,12.57 16.835,12.655 16.561,12.823C16.289,12.993 16.076,13.213 15.922,13.485C15.763,13.772 15.658,14.087 15.614,14.412C15.562,14.759 15.536,15.109 15.536,15.462L15.536,21.812L12.406,21.812L12.406,15.412C12.406,15.074 12.399,14.739 12.385,14.412C12.374,14.098 12.31,13.789 12.197,13.496C12.089,13.219 11.897,12.984 11.647,12.823C11.389,12.655 11.011,12.57 10.507,12.57C10.309,12.578 10.113,12.612 9.923,12.67C9.665,12.745 9.425,12.872 9.218,13.044C8.99,13.228 8.796,13.493 8.634,13.838C8.473,14.184 8.392,14.636 8.392,15.198L8.392,21.818L5.262,21.818L5.262,10.418L8.23,10.4Z" style="fill:white;fill-rule:nonzero;"/>
        <path d="M8.23,10.4L8.23,11.94L8.274,11.94C8.659,11.376 9.167,10.91 9.764,10.57C10.344,10.247 11.014,10.085 11.754,10.085C12.474,10.085 13.134,10.225 13.724,10.505C14.319,10.784 14.774,11.276 15.084,11.985C15.422,11.485 15.88,11.044 16.464,10.665C17.044,10.282 17.734,10.091 18.524,10.091C19.126,10.091 19.684,10.165 20.194,10.311C20.708,10.459 21.148,10.694 21.514,11.018C21.88,11.341 22.167,11.764 22.373,12.288C22.578,12.81 22.681,13.438 22.681,14.178L22.681,21.808L19.551,21.808L19.551,15.348C19.551,14.965 19.536,14.605 19.507,14.268C19.486,13.961 19.404,13.661 19.265,13.386C19.132,13.135 18.929,12.928 18.681,12.79C18.424,12.644 18.075,12.57 17.631,12.57C17.191,12.57 16.835,12.655 16.561,12.823C16.289,12.993 16.076,13.213 15.922,13.485C15.763,13.772 15.658,14.087 15.614,14.412C15.562,14.759 15.536,15.109 15.536,15.462L15.536,21.812L12.406,21.812L12.406,15.412C12.406,15.074 12.399,14.739 12.385,14.412C12.374,14.098 12.31,13.789 12.197,13.496C12.089,13.219 11.897,12.984 11.647,12.823C11.389,12.655 11.011,12.57 10.507,12.57C10.309,12.578 10.113,12.612 9.923,12.67C9.665,12.745 9.425,12.872 9.218,13.044C8.99,13.228 8.796,13.493 8.634,13.838C8.473,14.184 8.392,14.636 8.392,15.198L8.392,21.818L5.262,21.818L5.262,10.418L8.23,10.4ZM16.969,11.563C17.172,11.524 17.392,11.503 17.631,11.503C18.25,11.503 18.732,11.63 19.091,11.833C19.504,12.063 19.838,12.414 20.065,12.841L20.07,12.851C20.277,13.262 20.4,13.711 20.433,14.17C20.465,14.538 20.481,14.93 20.481,15.348L20.481,20.741L21.751,20.741L21.751,14.178C21.751,13.61 21.682,13.127 21.525,12.726C21.386,12.372 21.194,12.082 20.946,11.863C20.676,11.623 20.348,11.455 19.968,11.346C19.527,11.22 19.044,11.158 18.524,11.158C17.932,11.158 17.411,11.285 16.969,11.563ZM10.165,11.533C10.271,11.518 10.379,11.508 10.49,11.503L10.507,11.503C11.216,11.503 11.741,11.658 12.104,11.894C12.535,12.172 12.86,12.583 13.047,13.062L13.047,13.064C13.208,13.481 13.298,13.921 13.314,14.36C13.329,14.704 13.336,15.056 13.336,15.412L13.336,20.745L14.606,20.745L14.606,15.462C14.606,15.049 14.636,14.64 14.697,14.235C14.721,14.062 14.757,13.892 14.804,13.724L14.253,12.463C14.051,12.001 13.76,11.674 13.37,11.491L13.368,11.491C12.885,11.261 12.344,11.152 11.754,11.152C11.167,11.152 10.634,11.272 10.174,11.528L10.165,11.533ZM7.985,13.007L7.3,13.007L7.3,11.472L6.192,11.479L6.192,20.751L7.462,20.751L7.462,15.198C7.462,14.427 7.593,13.811 7.814,13.334L7.815,13.332C7.869,13.217 7.926,13.109 7.985,13.007Z" style="fill:white;"/>
        <g transform="matrix(2.46195,0,0,3.67364,1.40643,1.73475)">
            <path d="M1.887,7.386L0.601,7.386L0.601,0.377L1.887,0.377" style="fill:none;stroke:white;stroke-width:1.04px;"/>
        </g>
        <g transform="matrix(-2.46195,-3.45809e-16,3.92248e-16,-3.67364,26.6836,30.2552)">
            <path d="M1.887,7.386L0.601,7.386L0.601,0.377L1.887,0.377" style="fill:none;stroke:white;stroke-width:1.04px;"/>
        </g>
    </g>
</svg>
